<svg id="visual" viewBox="0 0 900 600" width="900" height="600" xmlns="http://www.w3.org/2000/svg" xmlns:xlink="http://www.w3.org/1999/xlink" version="1.1"><rect x="0" y="0" width="900" height="600" fill="#001220"></rect><defs><linearGradient id="grad1_0" x1="33.3%" y1="0%" x2="100%" y2="100%"><stop offset="20%" stop-color="#ff6a80" stop-opacity="1"></stop><stop offset="80%" stop-color="#ff6a80" stop-opacity="1"></stop></linearGradient></defs><defs><linearGradient id="grad1_1" x1="33.3%" y1="0%" x2="100%" y2="100%"><stop offset="20%" stop-color="#ff6a80" stop-opacity="1"></stop><stop offset="80%" stop-color="#6b4277" stop-opacity="1"></stop></linearGradient></defs><defs><linearGradient id="grad1_2" x1="33.3%" y1="0%" x2="100%" y2="100%"><stop offset="20%" stop-color="#001220" stop-opacity="1"></stop><stop offset="80%" stop-color="#6b4277" stop-opacity="1"></stop></linearGradient></defs><defs><linearGradient id="grad2_0" x1="0%" y1="0%" x2="66.7%" y2="100%"><stop offset="20%" stop-color="#ff6a80" stop-opacity="1"></stop><stop offset="80%" stop-color="#ff6a80" stop-opacity="1"></stop></linearGradient></defs><defs><linearGradient id="grad2_1" x1="0%" y1="0%" x2="66.7%" y2="100%"><stop offset="20%" stop-color="#6b4277" stop-opacity="1"></stop><stop offset="80%" stop-color="#ff6a80" stop-opacity="1"></stop></linearGradient></defs><defs><linearGradient id="grad2_2" x1="0%" y1="0%" x2="66.7%" y2="100%"><stop offset="20%" stop-color="#6b4277" stop-opacity="1"></stop><stop offset="80%" stop-color="#001220" stop-opacity="1"></stop></linearGradient></defs><g transform="translate(900, 0)"><path d="M0 405.6C-73.1 396.2 -146.1 386.9 -202.8 351.3C-259.5 315.7 -299.8 253.9 -330.8 191C-361.9 128.1 -383.8 64 -405.6 0L0 0Z" fill="#282d50"></path><path d="M0 270.4C-48.7 264.2 -97.4 257.9 -135.2 234.2C-173 210.5 -199.8 169.3 -220.5 127.3C-241.3 85.4 -255.8 42.7 -270.4 0L0 0Z" fill="#b85188"></path><path d="M0 135.2C-24.4 132.1 -48.7 129 -67.6 117.1C-86.5 105.2 -99.9 84.6 -110.3 63.7C-120.6 42.7 -127.9 21.3 -135.2 0L0 0Z" fill="#ff6a80"></path></g><g transform="translate(0, 600)"><path d="M0 -405.6C54.2 -366.7 108.4 -327.7 172.5 -298.8C236.6 -269.8 310.8 -250.9 351.3 -202.8C391.8 -154.7 398.7 -77.3 405.6 0L0 0Z" fill="#282d50"></path><path d="M0 -270.4C36.1 -244.4 72.2 -218.5 115 -199.2C157.8 -179.9 207.2 -167.3 234.2 -135.2C261.2 -103.1 265.8 -51.6 270.4 0L0 0Z" fill="#b85188"></path><path d="M0 -135.2C18.1 -122.2 36.1 -109.2 57.5 -99.6C78.9 -89.9 103.6 -83.6 117.1 -67.6C130.6 -51.6 132.9 -25.8 135.2 0L0 0Z" fill="#ff6a80"></path></g></svg>