<svg id="visual" viewBox="0 0 540 960" width="540" height="960" xmlns="http://www.w3.org/2000/svg" xmlns:xlink="http://www.w3.org/1999/xlink" version="1.1"><rect x="0" y="0" width="540" height="960" fill="#001220"></rect><defs><linearGradient id="grad1_0" x1="0%" y1="0%" x2="100%" y2="100%"><stop offset="30%" stop-color="#ff6a80" stop-opacity="1"></stop><stop offset="70%" stop-color="#ff6a80" stop-opacity="1"></stop></linearGradient></defs><defs><linearGradient id="grad1_1" x1="0%" y1="0%" x2="100%" y2="100%"><stop offset="30%" stop-color="#ff6a80" stop-opacity="1"></stop><stop offset="70%" stop-color="#6b4277" stop-opacity="1"></stop></linearGradient></defs><defs><linearGradient id="grad1_2" x1="0%" y1="0%" x2="100%" y2="100%"><stop offset="30%" stop-color="#001220" stop-opacity="1"></stop><stop offset="70%" stop-color="#6b4277" stop-opacity="1"></stop></linearGradient></defs><defs><linearGradient id="grad2_0" x1="0%" y1="0%" x2="100%" y2="100%"><stop offset="30%" stop-color="#ff6a80" stop-opacity="1"></stop><stop offset="70%" stop-color="#ff6a80" stop-opacity="1"></stop></linearGradient></defs><defs><linearGradient id="grad2_1" x1="0%" y1="0%" x2="100%" y2="100%"><stop offset="30%" stop-color="#6b4277" stop-opacity="1"></stop><stop offset="70%" stop-color="#ff6a80" stop-opacity="1"></stop></linearGradient></defs><defs><linearGradient id="grad2_2" x1="0%" y1="0%" x2="100%" y2="100%"><stop offset="30%" stop-color="#6b4277" stop-opacity="1"></stop><stop offset="70%" stop-color="#001220" stop-opacity="1"></stop></linearGradient></defs><g transform="translate(540, 0)"><path d="M0 378C-70.9 370.9 -141.7 363.7 -189 327.4C-236.3 291 -260 225.4 -287.5 166C-315.1 106.6 -346.5 53.3 -378 0L0 0Z" fill="#282d50"></path><path d="M0 252C-47.2 247.2 -94.5 242.5 -126 218.2C-157.5 194 -173.3 150.3 -191.7 110.7C-210.1 71 -231 35.5 -252 0L0 0Z" fill="#b85188"></path><path d="M0 126C-23.6 123.6 -47.2 121.2 -63 109.1C-78.8 97 -86.7 75.1 -95.8 55.3C-105 35.5 -115.5 17.8 -126 0L0 0Z" fill="#ff6a80"></path></g><g transform="translate(0, 960)"><path d="M0 -378C60.5 -359 121 -340 179.5 -310.9C238 -281.8 294.6 -242.5 327.4 -189C360.1 -135.5 369.1 -67.7 378 0L0 0Z" fill="#282d50"></path><path d="M0 -252C40.3 -239.3 80.6 -226.7 119.7 -207.3C158.7 -187.9 196.4 -161.7 218.2 -126C240.1 -90.3 246 -45.2 252 0L0 0Z" fill="#b85188"></path><path d="M0 -126C20.2 -119.7 40.3 -113.3 59.8 -103.6C79.3 -93.9 98.2 -80.8 109.1 -63C120 -45.2 123 -22.6 126 0L0 0Z" fill="#ff6a80"></path></g></svg>