<svg id="visual" viewBox="0 0 675 900" width="675" height="900" xmlns="http://www.w3.org/2000/svg" xmlns:xlink="http://www.w3.org/1999/xlink" version="1.1"><rect x="0" y="0" width="675" height="900" fill="#001220"></rect><defs><linearGradient id="grad1_0" x1="0%" y1="0%" x2="100%" y2="100%"><stop offset="30%" stop-color="#ff6a80" stop-opacity="1"></stop><stop offset="70%" stop-color="#ff6a80" stop-opacity="1"></stop></linearGradient></defs><defs><linearGradient id="grad1_1" x1="0%" y1="0%" x2="100%" y2="100%"><stop offset="30%" stop-color="#ff6a80" stop-opacity="1"></stop><stop offset="70%" stop-color="#6b4277" stop-opacity="1"></stop></linearGradient></defs><defs><linearGradient id="grad1_2" x1="0%" y1="0%" x2="100%" y2="100%"><stop offset="30%" stop-color="#001220" stop-opacity="1"></stop><stop offset="70%" stop-color="#6b4277" stop-opacity="1"></stop></linearGradient></defs><defs><linearGradient id="grad2_0" x1="0%" y1="0%" x2="100%" y2="100%"><stop offset="30%" stop-color="#ff6a80" stop-opacity="1"></stop><stop offset="70%" stop-color="#ff6a80" stop-opacity="1"></stop></linearGradient></defs><defs><linearGradient id="grad2_1" x1="0%" y1="0%" x2="100%" y2="100%"><stop offset="30%" stop-color="#6b4277" stop-opacity="1"></stop><stop offset="70%" stop-color="#ff6a80" stop-opacity="1"></stop></linearGradient></defs><defs><linearGradient id="grad2_2" x1="0%" y1="0%" x2="100%" y2="100%"><stop offset="30%" stop-color="#6b4277" stop-opacity="1"></stop><stop offset="70%" stop-color="#001220" stop-opacity="1"></stop></linearGradient></defs><g transform="translate(675, 0)"><path d="M0 393.8C-72.1 385.3 -144.1 376.8 -196.9 341C-249.6 305.1 -283 241.9 -312.6 180.5C-342.2 119.1 -368 59.6 -393.7 0L0 0Z" fill="#282d50"></path><path d="M0 262.5C-48 256.9 -96.1 251.2 -131.2 227.3C-166.4 203.4 -188.7 161.3 -208.4 120.3C-228.2 79.4 -245.3 39.7 -262.5 0L0 0Z" fill="#b85188"></path><path d="M0 131.3C-24 128.4 -48 125.6 -65.6 113.7C-83.2 101.7 -94.3 80.6 -104.2 60.2C-114.1 39.7 -122.7 19.9 -131.2 0L0 0Z" fill="#ff6a80"></path></g><g transform="translate(0, 900)"><path d="M0 -393.7C53.7 -357.8 107.4 -321.9 169.5 -293.6C231.6 -265.3 302.2 -244.5 341 -196.9C379.8 -149.2 386.8 -74.6 393.8 0L0 0Z" fill="#282d50"></path><path d="M0 -262.5C35.8 -238.6 71.6 -214.6 113 -195.7C154.4 -176.8 201.5 -163 227.3 -131.3C253.2 -99.5 257.8 -49.7 262.5 0L0 0Z" fill="#b85188"></path><path d="M0 -131.2C17.9 -119.3 35.8 -107.3 56.5 -97.9C77.2 -88.4 100.7 -81.5 113.7 -65.6C126.6 -49.7 128.9 -24.9 131.3 0L0 0Z" fill="#ff6a80"></path></g></svg>