<svg id="visual" viewBox="0 0 400 900" width="400" height="900" xmlns="http://www.w3.org/2000/svg" xmlns:xlink="http://www.w3.org/1999/xlink" version="1.1"><rect x="0" y="0" width="400" height="900" fill="#001220"></rect><defs><linearGradient id="grad1_0" x1="0%" y1="0%" x2="100%" y2="100%"><stop offset="30%" stop-color="#ff6a80" stop-opacity="1"></stop><stop offset="70%" stop-color="#ff6a80" stop-opacity="1"></stop></linearGradient></defs><defs><linearGradient id="grad1_1" x1="0%" y1="0%" x2="100%" y2="100%"><stop offset="30%" stop-color="#ff6a80" stop-opacity="1"></stop><stop offset="70%" stop-color="#6b4277" stop-opacity="1"></stop></linearGradient></defs><defs><linearGradient id="grad1_2" x1="0%" y1="0%" x2="100%" y2="100%"><stop offset="30%" stop-color="#001220" stop-opacity="1"></stop><stop offset="70%" stop-color="#6b4277" stop-opacity="1"></stop></linearGradient></defs><defs><linearGradient id="grad2_0" x1="0%" y1="0%" x2="100%" y2="100%"><stop offset="30%" stop-color="#ff6a80" stop-opacity="1"></stop><stop offset="70%" stop-color="#ff6a80" stop-opacity="1"></stop></linearGradient></defs><defs><linearGradient id="grad2_1" x1="0%" y1="0%" x2="100%" y2="100%"><stop offset="30%" stop-color="#6b4277" stop-opacity="1"></stop><stop offset="70%" stop-color="#ff6a80" stop-opacity="1"></stop></linearGradient></defs><defs><linearGradient id="grad2_2" x1="0%" y1="0%" x2="100%" y2="100%"><stop offset="30%" stop-color="#6b4277" stop-opacity="1"></stop><stop offset="70%" stop-color="#001220" stop-opacity="1"></stop></linearGradient></defs><g transform="translate(400, 0)"><path d="M0 360C-43.8 317.9 -87.5 275.9 -145 251.1C-202.5 226.4 -273.7 219 -311.8 180C-349.9 141 -354.9 70.5 -360 0L0 0Z" fill="#282d50"></path><path d="M0 240C-29.2 212 -58.4 183.9 -96.7 167.4C-135 150.9 -182.4 146 -207.8 120C-233.3 94 -236.6 47 -240 0L0 0Z" fill="#b85188"></path><path d="M0 120C-14.6 106 -29.2 92 -48.3 83.7C-67.5 75.5 -91.2 73 -103.9 60C-116.6 47 -118.3 23.5 -120 0L0 0Z" fill="#ff6a80"></path></g><g transform="translate(0, 900)"><path d="M0 -360C62.5 -350.3 125.1 -340.7 180 -311.8C234.9 -282.9 282.2 -234.7 310.9 -179.5C339.6 -124.3 349.8 -62.2 360 0L0 0Z" fill="#282d50"></path><path d="M0 -240C41.7 -233.6 83.4 -227.1 120 -207.8C156.6 -188.6 188.1 -156.4 207.3 -119.7C226.4 -82.9 233.2 -41.4 240 0L0 0Z" fill="#b85188"></path><path d="M0 -120C20.8 -116.8 41.7 -113.6 60 -103.9C78.3 -94.3 94.1 -78.2 103.6 -59.8C113.2 -41.4 116.6 -20.7 120 0L0 0Z" fill="#ff6a80"></path></g></svg>