<svg id="visual" viewBox="0 0 600 900" width="600" height="900" xmlns="http://www.w3.org/2000/svg" xmlns:xlink="http://www.w3.org/1999/xlink" version="1.1"><rect x="0" y="0" width="600" height="900" fill="#001220"></rect><defs><linearGradient id="grad1_0" x1="0%" y1="0%" x2="100%" y2="100%"><stop offset="30%" stop-color="#ff6a80" stop-opacity="1"></stop><stop offset="70%" stop-color="#ff6a80" stop-opacity="1"></stop></linearGradient></defs><defs><linearGradient id="grad1_1" x1="0%" y1="0%" x2="100%" y2="100%"><stop offset="30%" stop-color="#ff6a80" stop-opacity="1"></stop><stop offset="70%" stop-color="#6b4277" stop-opacity="1"></stop></linearGradient></defs><defs><linearGradient id="grad1_2" x1="0%" y1="0%" x2="100%" y2="100%"><stop offset="30%" stop-color="#001220" stop-opacity="1"></stop><stop offset="70%" stop-color="#6b4277" stop-opacity="1"></stop></linearGradient></defs><defs><linearGradient id="grad2_0" x1="0%" y1="0%" x2="100%" y2="100%"><stop offset="30%" stop-color="#ff6a80" stop-opacity="1"></stop><stop offset="70%" stop-color="#ff6a80" stop-opacity="1"></stop></linearGradient></defs><defs><linearGradient id="grad2_1" x1="0%" y1="0%" x2="100%" y2="100%"><stop offset="30%" stop-color="#6b4277" stop-opacity="1"></stop><stop offset="70%" stop-color="#ff6a80" stop-opacity="1"></stop></linearGradient></defs><defs><linearGradient id="grad2_2" x1="0%" y1="0%" x2="100%" y2="100%"><stop offset="30%" stop-color="#6b4277" stop-opacity="1"></stop><stop offset="70%" stop-color="#001220" stop-opacity="1"></stop></linearGradient></defs><g transform="translate(600, 0)"><path d="M0 405.6C-66.7 388.4 -133.4 371.1 -196 339.5C-258.6 307.8 -317 261.8 -351.3 202.8C-385.5 143.8 -395.6 71.9 -405.6 0L0 0Z" fill="#282d50"></path><path d="M0 270.4C-44.5 258.9 -88.9 247.4 -130.7 226.3C-172.4 205.2 -211.4 174.5 -234.2 135.2C-257 95.9 -263.7 47.9 -270.4 0L0 0Z" fill="#b85188"></path><path d="M0 135.2C-22.2 129.5 -44.5 123.7 -65.3 113.2C-86.2 102.6 -105.7 87.3 -117.1 67.6C-128.5 47.9 -131.9 24 -135.2 0L0 0Z" fill="#ff6a80"></path></g><g transform="translate(0, 900)"><path d="M0 -405.6C72 -395.6 144.1 -385.7 202.8 -351.3C261.6 -316.9 307 -258.1 338.6 -195.5C370.2 -132.9 387.9 -66.4 405.6 0L0 0Z" fill="#282d50"></path><path d="M0 -270.4C48 -263.8 96 -257.1 135.2 -234.2C174.4 -211.3 204.7 -172.1 225.7 -130.3C246.8 -88.6 258.6 -44.3 270.4 0L0 0Z" fill="#b85188"></path><path d="M0 -135.2C24 -131.9 48 -128.6 67.6 -117.1C87.2 -105.6 102.3 -86 112.9 -65.2C123.4 -44.3 129.3 -22.1 135.2 0L0 0Z" fill="#ff6a80"></path></g></svg>