<svg id="visual" viewBox="0 0 1080 1920" width="1080" height="1920" xmlns="http://www.w3.org/2000/svg" xmlns:xlink="http://www.w3.org/1999/xlink" version="1.1"><rect x="0" y="0" width="1080" height="1920" fill="#001220"></rect><defs><linearGradient id="grad1_0" x1="0%" y1="0%" x2="100%" y2="100%"><stop offset="30%" stop-color="#ff6a80" stop-opacity="1"></stop><stop offset="70%" stop-color="#ff6a80" stop-opacity="1"></stop></linearGradient></defs><defs><linearGradient id="grad1_1" x1="0%" y1="0%" x2="100%" y2="100%"><stop offset="30%" stop-color="#ff6a80" stop-opacity="1"></stop><stop offset="70%" stop-color="#6b4277" stop-opacity="1"></stop></linearGradient></defs><defs><linearGradient id="grad1_2" x1="0%" y1="0%" x2="100%" y2="100%"><stop offset="30%" stop-color="#001220" stop-opacity="1"></stop><stop offset="70%" stop-color="#6b4277" stop-opacity="1"></stop></linearGradient></defs><defs><linearGradient id="grad2_0" x1="0%" y1="0%" x2="100%" y2="100%"><stop offset="30%" stop-color="#ff6a80" stop-opacity="1"></stop><stop offset="70%" stop-color="#ff6a80" stop-opacity="1"></stop></linearGradient></defs><defs><linearGradient id="grad2_1" x1="0%" y1="0%" x2="100%" y2="100%"><stop offset="30%" stop-color="#6b4277" stop-opacity="1"></stop><stop offset="70%" stop-color="#ff6a80" stop-opacity="1"></stop></linearGradient></defs><defs><linearGradient id="grad2_2" x1="0%" y1="0%" x2="100%" y2="100%"><stop offset="30%" stop-color="#6b4277" stop-opacity="1"></stop><stop offset="70%" stop-color="#001220" stop-opacity="1"></stop></linearGradient></defs><g transform="translate(1080, 0)"><path d="M0 756C-141.5 741.6 -283 727.2 -378 654.7C-473 582.3 -521.5 451.8 -576.8 333C-632 214.2 -694 107.1 -756 0L0 0Z" fill="#282d50"></path><path d="M0 504C-94.3 494.4 -188.7 484.8 -252 436.5C-315.3 388.2 -347.7 301.2 -384.5 222C-421.3 142.8 -462.7 71.4 -504 0L0 0Z" fill="#b85188"></path><path d="M0 252C-47.2 247.2 -94.3 242.4 -126 218.2C-157.7 194.1 -173.8 150.6 -192.3 111C-210.7 71.4 -231.3 35.7 -252 0L0 0Z" fill="#ff6a80"></path></g><g transform="translate(0, 1920)"><path d="M0 -756C138.6 -739.9 277.2 -723.8 378 -654.7C478.8 -585.6 541.7 -463.5 598.4 -345.5C655.1 -227.5 705.6 -113.8 756 0L0 0Z" fill="#282d50"></path><path d="M0 -504C92.4 -493.3 184.8 -482.6 252 -436.5C319.2 -390.4 361.2 -309 398.9 -230.3C436.7 -151.7 470.4 -75.8 504 0L0 0Z" fill="#b85188"></path><path d="M0 -252C46.2 -246.6 92.4 -241.3 126 -218.2C159.6 -195.2 180.6 -154.5 199.5 -115.2C218.4 -75.8 235.2 -37.9 252 0L0 0Z" fill="#ff6a80"></path></g></svg>