<svg id="visual" viewBox="0 0 390 844" width="390" height="844" xmlns="http://www.w3.org/2000/svg" xmlns:xlink="http://www.w3.org/1999/xlink" version="1.1"><rect x="0" y="0" width="390" height="844" fill="#001220"></rect><defs><linearGradient id="grad1_0" x1="0%" y1="0%" x2="100%" y2="100%"><stop offset="30%" stop-color="#ff6a80" stop-opacity="1"></stop><stop offset="70%" stop-color="#ff6a80" stop-opacity="1"></stop></linearGradient></defs><defs><linearGradient id="grad1_1" x1="0%" y1="0%" x2="100%" y2="100%"><stop offset="30%" stop-color="#ff6a80" stop-opacity="1"></stop><stop offset="70%" stop-color="#6b4277" stop-opacity="1"></stop></linearGradient></defs><defs><linearGradient id="grad1_2" x1="0%" y1="0%" x2="100%" y2="100%"><stop offset="30%" stop-color="#001220" stop-opacity="1"></stop><stop offset="70%" stop-color="#6b4277" stop-opacity="1"></stop></linearGradient></defs><defs><linearGradient id="grad2_0" x1="0%" y1="0%" x2="100%" y2="100%"><stop offset="30%" stop-color="#ff6a80" stop-opacity="1"></stop><stop offset="70%" stop-color="#ff6a80" stop-opacity="1"></stop></linearGradient></defs><defs><linearGradient id="grad2_1" x1="0%" y1="0%" x2="100%" y2="100%"><stop offset="30%" stop-color="#6b4277" stop-opacity="1"></stop><stop offset="70%" stop-color="#ff6a80" stop-opacity="1"></stop></linearGradient></defs><defs><linearGradient id="grad2_2" x1="0%" y1="0%" x2="100%" y2="100%"><stop offset="30%" stop-color="#6b4277" stop-opacity="1"></stop><stop offset="70%" stop-color="#001220" stop-opacity="1"></stop></linearGradient></defs><g transform="translate(390, 0)"><path d="M0 351C-59 338.3 -118 325.6 -172 297.9C-226 270.3 -275 227.6 -304 175.5C-333 123.4 -342 61.7 -351 0L0 0Z" fill="#282d50"></path><path d="M0 234C-39.3 225.5 -78.7 217 -114.7 198.6C-150.7 180.2 -183.3 151.8 -202.6 117C-222 82.2 -228 41.1 -234 0L0 0Z" fill="#b85188"></path><path d="M0 117C-19.7 112.8 -39.3 108.5 -57.3 99.3C-75.3 90.1 -91.7 75.9 -101.3 58.5C-111 41.1 -114 20.6 -117 0L0 0Z" fill="#ff6a80"></path></g><g transform="translate(0, 844)"><path d="M0 -351C49.7 -322.1 99.3 -293.2 154.5 -267.6C209.7 -242 270.3 -219.6 304 -175.5C337.6 -131.4 344.3 -65.7 351 0L0 0Z" fill="#282d50"></path><path d="M0 -234C33.1 -214.7 66.2 -195.5 103 -178.4C139.8 -161.3 180.2 -146.4 202.6 -117C225.1 -87.6 229.5 -43.8 234 0L0 0Z" fill="#b85188"></path><path d="M0 -117C16.6 -107.4 33.1 -97.7 51.5 -89.2C69.9 -80.7 90.1 -73.2 101.3 -58.5C112.5 -43.8 114.8 -21.9 117 0L0 0Z" fill="#ff6a80"></path></g></svg>