<svg id="visual" viewBox="0 0 390 300" width="390" height="300" xmlns="http://www.w3.org/2000/svg" xmlns:xlink="http://www.w3.org/1999/xlink" version="1.1"><rect x="0" y="0" width="390" height="300" fill="#001220"></rect><defs><linearGradient id="grad1_0" x1="23.1%" y1="0%" x2="100%" y2="100%"><stop offset="24%" stop-color="#ff6a80" stop-opacity="1"></stop><stop offset="76%" stop-color="#ff6a80" stop-opacity="1"></stop></linearGradient></defs><defs><linearGradient id="grad1_1" x1="23.1%" y1="0%" x2="100%" y2="100%"><stop offset="24%" stop-color="#ff6a80" stop-opacity="1"></stop><stop offset="76%" stop-color="#6b4277" stop-opacity="1"></stop></linearGradient></defs><defs><linearGradient id="grad1_2" x1="23.1%" y1="0%" x2="100%" y2="100%"><stop offset="24%" stop-color="#001220" stop-opacity="1"></stop><stop offset="76%" stop-color="#6b4277" stop-opacity="1"></stop></linearGradient></defs><defs><linearGradient id="grad2_0" x1="0%" y1="0%" x2="76.9%" y2="100%"><stop offset="24%" stop-color="#ff6a80" stop-opacity="1"></stop><stop offset="76%" stop-color="#ff6a80" stop-opacity="1"></stop></linearGradient></defs><defs><linearGradient id="grad2_1" x1="0%" y1="0%" x2="76.9%" y2="100%"><stop offset="24%" stop-color="#6b4277" stop-opacity="1"></stop><stop offset="76%" stop-color="#ff6a80" stop-opacity="1"></stop></linearGradient></defs><defs><linearGradient id="grad2_2" x1="0%" y1="0%" x2="76.9%" y2="100%"><stop offset="24%" stop-color="#6b4277" stop-opacity="1"></stop><stop offset="76%" stop-color="#001220" stop-opacity="1"></stop></linearGradient></defs><g transform="translate(390, 0)"><path d="M0 172.2C-30.5 167.9 -60.9 163.6 -86.1 149.1C-111.3 134.7 -131.2 110.1 -144.6 83.5C-158.1 56.9 -165.2 28.5 -172.2 0L0 0Z" fill="#282d50"></path><path d="M0 114.8C-20.3 111.9 -40.6 109.1 -57.4 99.4C-74.2 89.8 -87.4 73.4 -96.4 55.7C-105.4 38 -110.1 19 -114.8 0L0 0Z" fill="#b85188"></path><path d="M0 57.4C-10.2 56 -20.3 54.5 -28.7 49.7C-37.1 44.9 -43.7 36.7 -48.2 27.8C-52.7 19 -55.1 9.5 -57.4 0L0 0Z" fill="#ff6a80"></path></g><g transform="translate(0, 300)"><path d="M0 -172.2C27.9 -164.2 55.9 -156.2 82.5 -142.9C109.1 -129.5 134.4 -110.8 149.1 -86.1C163.9 -61.4 168 -30.7 172.2 0L0 0Z" fill="#282d50"></path><path d="M0 -114.8C18.6 -109.5 37.3 -104.2 55 -95.3C72.7 -86.4 89.6 -73.9 99.4 -57.4C109.2 -40.9 112 -20.5 114.8 0L0 0Z" fill="#b85188"></path><path d="M0 -57.4C9.3 -54.7 18.6 -52.1 27.5 -47.6C36.4 -43.2 44.8 -36.9 49.7 -28.7C54.6 -20.5 56 -10.2 57.4 0L0 0Z" fill="#ff6a80"></path></g></svg>