<svg id="visual" viewBox="0 0 600 900" width="600" height="900" xmlns="http://www.w3.org/2000/svg" xmlns:xlink="http://www.w3.org/1999/xlink" version="1.1"><rect x="0" y="0" width="600" height="900" fill="#001220"></rect><defs><linearGradient id="grad1_0" x1="0%" y1="0%" x2="100%" y2="100%"><stop offset="30%" stop-color="#ff6a80" stop-opacity="1"></stop><stop offset="70%" stop-color="#ff6a80" stop-opacity="1"></stop></linearGradient></defs><defs><linearGradient id="grad1_1" x1="0%" y1="0%" x2="100%" y2="100%"><stop offset="30%" stop-color="#ff6a80" stop-opacity="1"></stop><stop offset="70%" stop-color="#6b4277" stop-opacity="1"></stop></linearGradient></defs><defs><linearGradient id="grad1_2" x1="0%" y1="0%" x2="100%" y2="100%"><stop offset="30%" stop-color="#001220" stop-opacity="1"></stop><stop offset="70%" stop-color="#6b4277" stop-opacity="1"></stop></linearGradient></defs><defs><linearGradient id="grad2_0" x1="0%" y1="0%" x2="100%" y2="100%"><stop offset="30%" stop-color="#ff6a80" stop-opacity="1"></stop><stop offset="70%" stop-color="#ff6a80" stop-opacity="1"></stop></linearGradient></defs><defs><linearGradient id="grad2_1" x1="0%" y1="0%" x2="100%" y2="100%"><stop offset="30%" stop-color="#6b4277" stop-opacity="1"></stop><stop offset="70%" stop-color="#ff6a80" stop-opacity="1"></stop></linearGradient></defs><defs><linearGradient id="grad2_2" x1="0%" y1="0%" x2="100%" y2="100%"><stop offset="30%" stop-color="#6b4277" stop-opacity="1"></stop><stop offset="70%" stop-color="#001220" stop-opacity="1"></stop></linearGradient></defs><g transform="translate(600, 0)"><path d="M0 486.7C-90.3 477 -180.5 467.2 -243.4 421.5C-306.2 375.9 -341.6 294.2 -377.6 218C-413.6 141.8 -450.2 70.9 -486.7 0L0 0Z" fill="#282d50"></path><path d="M0 324.5C-60.2 318 -120.4 311.5 -162.2 281C-204.1 250.6 -227.7 196.2 -251.7 145.3C-275.7 94.5 -300.1 47.3 -324.5 0L0 0Z" fill="#b85188"></path><path d="M0 162.2C-30.1 159 -60.2 155.7 -81.1 140.5C-102.1 125.3 -113.9 98.1 -125.9 72.7C-137.9 47.3 -150.1 23.6 -162.2 0L0 0Z" fill="#ff6a80"></path></g><g transform="translate(0, 900)"><path d="M0 -486.7C91 -477.4 181.9 -468 243.4 -421.5C304.8 -375.1 336.7 -291.4 372.4 -215C408 -138.6 447.4 -69.3 486.7 0L0 0Z" fill="#282d50"></path><path d="M0 -324.5C60.6 -318.3 121.3 -312 162.2 -281C203.2 -250 224.5 -194.3 248.3 -143.3C272 -92.4 298.3 -46.2 324.5 0L0 0Z" fill="#b85188"></path><path d="M0 -162.2C30.3 -159.1 60.6 -156 81.1 -140.5C101.6 -125 112.2 -97.1 124.1 -71.7C136 -46.2 149.1 -23.1 162.2 0L0 0Z" fill="#ff6a80"></path></g></svg>