<svg id="visual" viewBox="0 0 600 900" width="600" height="900" xmlns="http://www.w3.org/2000/svg" xmlns:xlink="http://www.w3.org/1999/xlink" version="1.1"><rect x="0" y="0" width="600" height="900" fill="#001220"></rect><defs><linearGradient id="grad1_0" x1="0%" y1="0%" x2="100%" y2="100%"><stop offset="30%" stop-color="#ff6a80" stop-opacity="1"></stop><stop offset="70%" stop-color="#ff6a80" stop-opacity="1"></stop></linearGradient></defs><defs><linearGradient id="grad1_1" x1="0%" y1="0%" x2="100%" y2="100%"><stop offset="30%" stop-color="#ff6a80" stop-opacity="1"></stop><stop offset="70%" stop-color="#6b4277" stop-opacity="1"></stop></linearGradient></defs><defs><linearGradient id="grad1_2" x1="0%" y1="0%" x2="100%" y2="100%"><stop offset="30%" stop-color="#001220" stop-opacity="1"></stop><stop offset="70%" stop-color="#6b4277" stop-opacity="1"></stop></linearGradient></defs><defs><linearGradient id="grad2_0" x1="0%" y1="0%" x2="100%" y2="100%"><stop offset="30%" stop-color="#ff6a80" stop-opacity="1"></stop><stop offset="70%" stop-color="#ff6a80" stop-opacity="1"></stop></linearGradient></defs><defs><linearGradient id="grad2_1" x1="0%" y1="0%" x2="100%" y2="100%"><stop offset="30%" stop-color="#6b4277" stop-opacity="1"></stop><stop offset="70%" stop-color="#ff6a80" stop-opacity="1"></stop></linearGradient></defs><defs><linearGradient id="grad2_2" x1="0%" y1="0%" x2="100%" y2="100%"><stop offset="30%" stop-color="#6b4277" stop-opacity="1"></stop><stop offset="70%" stop-color="#001220" stop-opacity="1"></stop></linearGradient></defs><g transform="translate(600, 0)"><path d="M0 378.6C-56.4 352.4 -112.9 326.2 -172 297.9C-231.1 269.6 -293 239.3 -327.9 189.3C-362.7 139.3 -370.7 69.6 -378.6 0L0 0Z" fill="#282d50"></path><path d="M0 252.4C-37.6 234.9 -75.2 217.5 -114.7 198.6C-154.1 179.8 -195.3 159.5 -218.6 126.2C-241.8 92.9 -247.1 46.4 -252.4 0L0 0Z" fill="#b85188"></path><path d="M0 126.2C-18.8 117.5 -37.6 108.7 -57.3 99.3C-77 89.9 -97.7 79.8 -109.3 63.1C-120.9 46.4 -123.6 23.2 -126.2 0L0 0Z" fill="#ff6a80"></path></g><g transform="translate(0, 900)"><path d="M0 -378.6C54.8 -349.6 109.7 -320.6 169 -292.7C228.3 -264.8 292.2 -237.9 327.9 -189.3C363.5 -140.7 371.1 -70.3 378.6 0L0 0Z" fill="#282d50"></path><path d="M0 -252.4C36.6 -233.1 73.1 -213.8 112.7 -195.1C152.2 -176.5 194.8 -158.6 218.6 -126.2C242.4 -93.8 247.4 -46.9 252.4 0L0 0Z" fill="#b85188"></path><path d="M0 -126.2C18.3 -116.5 36.6 -106.9 56.3 -97.6C76.1 -88.3 97.4 -79.3 109.3 -63.1C121.2 -46.9 123.7 -23.4 126.2 0L0 0Z" fill="#ff6a80"></path></g></svg>